<svg width="100%" height="85vh" viewBox="0 0 869 555" fill="none" xmlns="http://www.w3.org/2000/svg">
<g clip-path="url(#clip0_308_796)">
<path d="M868.011 554.082H0.719971V0.180738H868.011V554.082Z" fill="white"/>
<path d="M376.298 287.756H496.983C496.983 287.756 489.111 274.811 467.489 279.473C467.489 279.473 463.414 261.787 442.118 261.787C423.661 261.787 418.459 279.473 418.459 279.473C418.459 279.473 405.041 269.805 394.242 283.828C394.242 283.828 378.934 279.256 376.298 287.756Z" fill="#E6F0FF"/>
<path d="M697.755 177.159H818.44C818.44 177.159 810.568 164.214 788.946 168.877C788.946 168.877 784.871 151.19 763.575 151.19C745.118 151.19 739.915 168.877 739.915 168.877C739.915 168.877 726.498 159.209 715.699 173.231C715.699 173.231 700.391 168.659 697.755 177.159Z" fill="#E6F0FF"/>
<path d="M63.6808 213.327L55.7021 185.443H62.1422L66.7579 204.817H66.9893L72.0815 185.443H77.5958L82.6744 204.858H82.9194L87.5351 185.443H93.9752L85.9965 213.327H80.2508L74.9408 195.096H74.7229L69.4265 213.327H63.6808ZM97.1306 213.327V185.443H115.92V190.303H103.026V196.948H114.953V201.808H103.026V208.466H115.974V213.327H97.1306ZM120.607 213.327V185.443H131.772C133.823 185.443 135.534 185.747 136.905 186.355C138.275 186.963 139.306 187.807 139.996 188.887C140.685 189.958 141.03 191.193 141.03 192.591C141.03 193.68 140.812 194.638 140.377 195.464C139.941 196.281 139.342 196.952 138.58 197.479C137.826 197.996 136.964 198.364 135.993 198.582V198.854C137.055 198.899 138.049 199.199 138.974 199.753C139.909 200.306 140.667 201.082 141.248 202.081C141.829 203.07 142.12 204.25 142.12 205.621C142.12 207.1 141.752 208.421 141.017 209.583C140.291 210.736 139.215 211.648 137.79 212.32C136.365 212.991 134.608 213.327 132.521 213.327H120.607ZM126.503 208.507H131.309C132.952 208.507 134.15 208.194 134.903 207.568C135.657 206.932 136.033 206.088 136.033 205.035C136.033 204.264 135.847 203.583 135.475 202.993C135.103 202.403 134.572 201.94 133.882 201.604C133.201 201.268 132.389 201.1 131.445 201.1H126.503V208.507ZM126.503 197.111H130.873C131.681 197.111 132.398 196.97 133.024 196.689C133.66 196.399 134.159 195.99 134.522 195.464C134.894 194.937 135.08 194.306 135.08 193.571C135.08 192.564 134.722 191.751 134.005 191.134C133.297 190.517 132.289 190.208 130.982 190.208H126.503V197.111ZM169.956 193.462C169.847 192.364 169.38 191.511 168.554 190.902C167.728 190.294 166.607 189.99 165.191 189.99C164.229 189.99 163.416 190.126 162.754 190.399C162.091 190.662 161.583 191.03 161.229 191.502C160.884 191.974 160.711 192.509 160.711 193.108C160.693 193.607 160.798 194.043 161.025 194.415C161.261 194.787 161.583 195.11 161.991 195.382C162.4 195.645 162.872 195.877 163.407 196.076C163.943 196.267 164.515 196.43 165.123 196.566L167.628 197.166C168.844 197.438 169.961 197.801 170.978 198.255C171.994 198.709 172.875 199.267 173.619 199.93C174.363 200.592 174.94 201.373 175.348 202.271C175.766 203.17 175.979 204.2 175.988 205.362C175.979 207.069 175.543 208.548 174.681 209.801C173.828 211.044 172.593 212.011 170.978 212.701C169.371 213.382 167.433 213.722 165.164 213.722C162.913 213.722 160.952 213.377 159.282 212.687C157.621 211.997 156.323 210.976 155.388 209.624C154.462 208.262 153.976 206.578 153.931 204.572H159.636C159.699 205.507 159.967 206.288 160.439 206.914C160.92 207.531 161.56 207.999 162.359 208.317C163.167 208.625 164.079 208.78 165.096 208.78C166.094 208.78 166.961 208.634 167.696 208.344C168.441 208.053 169.017 207.649 169.425 207.132C169.834 206.615 170.038 206.02 170.038 205.348C170.038 204.722 169.852 204.196 169.48 203.769C169.117 203.342 168.581 202.979 167.873 202.68C167.174 202.38 166.317 202.108 165.3 201.863L162.264 201.1C159.913 200.529 158.056 199.635 156.695 198.418C155.333 197.202 154.657 195.563 154.666 193.503C154.657 191.815 155.106 190.34 156.014 189.078C156.931 187.816 158.188 186.831 159.786 186.123C161.383 185.415 163.199 185.061 165.232 185.061C167.301 185.061 169.108 185.415 170.651 186.123C172.203 186.831 173.41 187.816 174.273 189.078C175.135 190.34 175.58 191.801 175.607 193.462H169.956ZM185.849 185.443V213.327H179.954V185.443H185.849ZM189.638 190.303V185.443H212.539V190.303H204.002V213.327H198.175V190.303H189.638ZM216.31 213.327V185.443H235.1V190.303H222.206V196.948H234.133V201.808H222.206V208.466H235.154V213.327H216.31Z" fill="#4C54BD"/>
<path d="M294.695 185.443V213.327H291.318V185.443H294.695ZM316.715 192.414C316.551 191.034 315.889 189.963 314.727 189.201C313.565 188.438 312.14 188.057 310.451 188.057C309.217 188.057 308.137 188.257 307.211 188.656C306.294 189.055 305.577 189.604 305.06 190.303C304.551 191.002 304.297 191.797 304.297 192.686C304.297 193.43 304.474 194.07 304.828 194.606C305.191 195.132 305.654 195.573 306.217 195.927C306.78 196.271 307.37 196.557 307.987 196.784C308.604 197.002 309.172 197.179 309.689 197.315L312.521 198.078C313.247 198.268 314.055 198.532 314.945 198.868C315.843 199.203 316.701 199.662 317.518 200.243C318.344 200.815 319.025 201.55 319.56 202.448C320.096 203.347 320.364 204.45 320.364 205.757C320.364 207.264 319.969 208.625 319.179 209.842C318.398 211.058 317.255 212.025 315.748 212.742C314.25 213.459 312.43 213.817 310.288 213.817C308.291 213.817 306.562 213.495 305.101 212.851C303.648 212.206 302.505 211.308 301.669 210.155C300.843 209.002 300.376 207.663 300.267 206.138H303.753C303.843 207.191 304.197 208.062 304.815 208.752C305.441 209.433 306.231 209.941 307.184 210.277C308.146 210.604 309.181 210.767 310.288 210.767C311.577 210.767 312.734 210.559 313.76 210.141C314.786 209.715 315.598 209.125 316.197 208.371C316.796 207.609 317.096 206.719 317.096 205.702C317.096 204.777 316.837 204.023 316.32 203.442C315.802 202.861 315.122 202.389 314.277 202.026C313.433 201.663 312.521 201.346 311.541 201.073L308.11 200.093C305.931 199.467 304.206 198.573 302.936 197.411C301.665 196.249 301.03 194.728 301.03 192.849C301.03 191.288 301.452 189.927 302.296 188.765C303.149 187.594 304.293 186.686 305.727 186.042C307.17 185.388 308.781 185.061 310.56 185.061C312.358 185.061 313.955 185.384 315.353 186.028C316.751 186.663 317.858 187.535 318.675 188.642C319.501 189.75 319.937 191.007 319.982 192.414H316.715Z" fill="#4C54BD"/>
<path d="M65.0433 225.211H66.6111V233.784C66.6111 234.669 66.4025 235.459 65.9853 236.154C65.5722 236.845 64.9885 237.391 64.2341 237.792C63.4797 238.188 62.5947 238.386 61.579 238.386C60.5633 238.386 59.6783 238.188 58.9239 237.792C58.1695 237.391 57.5837 236.845 57.1664 236.154C56.7534 235.459 56.5469 234.669 56.5469 233.784V225.211H58.1147V233.657C58.1147 234.289 58.2538 234.852 58.5319 235.345C58.8101 235.834 59.2063 236.22 59.7204 236.502C60.2388 236.78 60.8583 236.919 61.579 236.919C62.2997 236.919 62.9192 236.78 63.4376 236.502C63.956 236.22 64.3521 235.834 64.6261 235.345C64.9042 234.852 65.0433 234.289 65.0433 233.657V225.211ZM80.0084 225.211V238.158H78.4912L71.4362 227.993H71.3097V238.158H69.742V225.211H71.2592L78.3395 235.402H78.4659V225.211H80.0084ZM87.1409 238.158H83.1456V225.211H87.3179C88.5739 225.211 89.6486 225.47 90.542 225.989C91.4355 226.503 92.1204 227.243 92.5966 228.208C93.0728 229.169 93.311 230.319 93.311 231.659C93.311 233.008 93.0707 234.169 92.5903 235.143C92.1098 236.112 91.4102 236.858 90.4915 237.381C89.5727 237.899 88.4559 238.158 87.1409 238.158ZM84.7134 236.767H87.0398C88.1103 236.767 88.9974 236.561 89.7012 236.148C90.4051 235.735 90.9298 235.147 91.2754 234.384C91.6209 233.621 91.7937 232.713 91.7937 231.659C91.7937 230.614 91.623 229.714 91.2817 228.96C90.9403 228.201 90.4303 227.62 89.7518 227.215C89.0733 226.806 88.2283 226.602 87.2168 226.602H84.7134V236.767ZM95.9408 238.158V225.211H103.754V226.602H97.5086V230.977H103.35V232.367H97.5086V236.767H103.856V238.158H95.9408ZM106.58 238.158V225.211H110.955C111.966 225.211 112.797 225.384 113.446 225.73C114.095 226.071 114.575 226.541 114.887 227.139C115.199 227.738 115.355 228.419 115.355 229.181C115.355 229.944 115.199 230.621 114.887 231.211C114.575 231.801 114.097 232.264 113.452 232.601C112.807 232.934 111.983 233.101 110.98 233.101H107.44V231.685H110.93C111.621 231.685 112.177 231.584 112.599 231.381C113.024 231.179 113.332 230.892 113.522 230.522C113.715 230.146 113.812 229.7 113.812 229.181C113.812 228.663 113.715 228.21 113.522 227.822C113.328 227.434 113.018 227.135 112.592 226.924C112.167 226.71 111.604 226.602 110.904 226.602H108.148V238.158H106.58ZM112.674 232.342L115.861 238.158H114.04L110.904 232.342H112.674ZM133.392 229.257H131.825C131.732 228.806 131.57 228.41 131.338 228.069C131.11 227.727 130.832 227.441 130.503 227.209C130.179 226.973 129.818 226.796 129.422 226.678C129.026 226.56 128.613 226.501 128.183 226.501C127.399 226.501 126.689 226.699 126.053 227.095C125.421 227.491 124.917 228.075 124.542 228.846C124.171 229.618 123.986 230.564 123.986 231.685C123.986 232.806 124.171 233.752 124.542 234.523C124.917 235.294 125.421 235.878 126.053 236.274C126.689 236.67 127.399 236.869 128.183 236.869C128.613 236.869 129.026 236.81 129.422 236.692C129.818 236.574 130.179 236.399 130.503 236.167C130.832 235.931 131.11 235.642 131.338 235.301C131.57 234.955 131.732 234.559 131.825 234.112H133.392C133.274 234.774 133.059 235.366 132.747 235.889C132.436 236.411 132.048 236.856 131.584 237.223C131.121 237.585 130.6 237.861 130.023 238.051C129.45 238.24 128.836 238.335 128.183 238.335C127.079 238.335 126.097 238.065 125.237 237.526C124.378 236.987 123.701 236.22 123.208 235.225C122.715 234.23 122.468 233.05 122.468 231.685C122.468 230.319 122.715 229.139 123.208 228.145C123.701 227.15 124.378 226.383 125.237 225.843C126.097 225.304 127.079 225.034 128.183 225.034C128.836 225.034 129.45 225.129 130.023 225.319C130.6 225.508 131.121 225.787 131.584 226.153C132.048 226.516 132.436 226.958 132.747 227.481C133.059 227.999 133.274 228.591 133.392 229.257ZM146.85 231.685C146.85 233.05 146.603 234.23 146.11 235.225C145.617 236.22 144.941 236.987 144.081 237.526C143.221 238.065 142.239 238.335 141.135 238.335C140.031 238.335 139.049 238.065 138.189 237.526C137.329 236.987 136.653 236.22 136.16 235.225C135.667 234.23 135.42 233.05 135.42 231.685C135.42 230.319 135.667 229.139 136.16 228.145C136.653 227.15 137.329 226.383 138.189 225.843C139.049 225.304 140.031 225.034 141.135 225.034C142.239 225.034 143.221 225.304 144.081 225.843C144.941 226.383 145.617 227.15 146.11 228.145C146.603 229.139 146.85 230.319 146.85 231.685ZM145.332 231.685C145.332 230.564 145.145 229.618 144.77 228.846C144.399 228.075 143.895 227.491 143.259 227.095C142.627 226.699 141.919 226.501 141.135 226.501C140.351 226.501 139.641 226.699 139.004 227.095C138.372 227.491 137.869 228.075 137.494 228.846C137.123 229.618 136.937 230.564 136.937 231.685C136.937 232.806 137.123 233.752 137.494 234.523C137.869 235.294 138.372 235.878 139.004 236.274C139.641 236.67 140.351 236.869 141.135 236.869C141.919 236.869 142.627 236.67 143.259 236.274C143.895 235.878 144.399 235.294 144.77 234.523C145.145 233.752 145.332 232.806 145.332 231.685ZM159.752 225.211V238.158H158.235L151.18 227.993H151.054V238.158H149.486V225.211H151.003L158.083 235.402H158.21V225.211H159.752ZM169.97 228.448C169.894 227.807 169.586 227.31 169.047 226.956C168.507 226.602 167.846 226.425 167.062 226.425C166.489 226.425 165.987 226.518 165.557 226.703C165.132 226.889 164.799 227.144 164.558 227.468C164.322 227.793 164.204 228.161 164.204 228.574C164.204 228.92 164.287 229.217 164.451 229.466C164.62 229.71 164.834 229.915 165.096 230.079C165.357 230.239 165.631 230.372 165.918 230.477C166.204 230.578 166.468 230.661 166.708 230.724L168.023 231.078C168.36 231.166 168.735 231.289 169.148 231.445C169.565 231.6 169.964 231.813 170.343 232.083C170.726 232.349 171.042 232.69 171.291 233.107C171.54 233.524 171.664 234.036 171.664 234.643C171.664 235.343 171.481 235.975 171.114 236.54C170.752 237.105 170.221 237.553 169.521 237.886C168.826 238.219 167.981 238.386 166.986 238.386C166.059 238.386 165.256 238.236 164.577 237.937C163.903 237.638 163.372 237.22 162.984 236.685C162.601 236.15 162.384 235.528 162.333 234.82H163.952C163.994 235.309 164.158 235.714 164.445 236.034C164.735 236.35 165.102 236.586 165.545 236.742C165.991 236.894 166.472 236.97 166.986 236.97C167.584 236.97 168.122 236.873 168.598 236.679C169.074 236.481 169.451 236.207 169.73 235.857C170.008 235.503 170.147 235.09 170.147 234.618C170.147 234.188 170.027 233.838 169.787 233.569C169.546 233.299 169.23 233.08 168.838 232.911C168.446 232.743 168.023 232.595 167.568 232.469L165.975 232.013C164.963 231.723 164.162 231.308 163.572 230.768C162.982 230.229 162.687 229.523 162.687 228.65C162.687 227.925 162.883 227.293 163.275 226.754C163.671 226.21 164.202 225.789 164.868 225.489C165.538 225.186 166.286 225.034 167.112 225.034C167.947 225.034 168.689 225.184 169.338 225.483C169.987 225.778 170.501 226.183 170.88 226.697C171.264 227.211 171.466 227.795 171.487 228.448H169.97ZM173.534 226.602V225.211H183.244V226.602H179.173V238.158H177.605V226.602H173.534ZM185.664 238.158V225.211H190.038C191.05 225.211 191.88 225.384 192.529 225.73C193.178 226.071 193.658 226.541 193.97 227.139C194.282 227.738 194.438 228.419 194.438 229.181C194.438 229.944 194.282 230.621 193.97 231.211C193.658 231.801 193.18 232.264 192.535 232.601C191.89 232.934 191.067 233.101 190.063 233.101H186.523V231.685H190.013C190.704 231.685 191.26 231.584 191.682 231.381C192.108 231.179 192.415 230.892 192.605 230.522C192.799 230.146 192.896 229.7 192.896 229.181C192.896 228.663 192.799 228.21 192.605 227.822C192.411 227.434 192.101 227.135 191.676 226.924C191.25 226.71 190.687 226.602 189.988 226.602H187.231V238.158H185.664ZM191.758 232.342L194.944 238.158H193.123L189.988 232.342H191.758ZM205.547 225.211H207.115V233.784C207.115 234.669 206.906 235.459 206.489 236.154C206.076 236.845 205.492 237.391 204.738 237.792C203.983 238.188 203.098 238.386 202.083 238.386C201.067 238.386 200.182 238.188 199.428 237.792C198.673 237.391 198.087 236.845 197.67 236.154C197.257 235.459 197.051 234.669 197.051 233.784V225.211H198.618V233.657C198.618 234.289 198.757 234.852 199.036 235.345C199.314 235.834 199.71 236.22 200.224 236.502C200.742 236.78 201.362 236.919 202.083 236.919C202.803 236.919 203.423 236.78 203.941 236.502C204.46 236.22 204.856 235.834 205.13 235.345C205.408 234.852 205.547 234.289 205.547 233.657V225.211ZM220.664 229.257H219.096C219.003 228.806 218.841 228.41 218.609 228.069C218.382 227.727 218.104 227.441 217.775 227.209C217.45 226.973 217.09 226.796 216.694 226.678C216.298 226.56 215.885 226.501 215.455 226.501C214.671 226.501 213.961 226.699 213.324 227.095C212.692 227.491 212.188 228.075 211.813 228.846C211.443 229.618 211.257 230.564 211.257 231.685C211.257 232.806 211.443 233.752 211.813 234.523C212.188 235.294 212.692 235.878 213.324 236.274C213.961 236.67 214.671 236.869 215.455 236.869C215.885 236.869 216.298 236.81 216.694 236.692C217.09 236.574 217.45 236.399 217.775 236.167C218.104 235.931 218.382 235.642 218.609 235.301C218.841 234.955 219.003 234.559 219.096 234.112H220.664C220.546 234.774 220.331 235.366 220.019 235.889C219.707 236.411 219.319 236.856 218.856 237.223C218.392 237.585 217.872 237.861 217.294 238.051C216.721 238.24 216.108 238.335 215.455 238.335C214.351 238.335 213.369 238.065 212.509 237.526C211.649 236.987 210.973 236.22 210.48 235.225C209.986 234.23 209.74 233.05 209.74 231.685C209.74 230.319 209.986 229.139 210.48 228.145C210.973 227.15 211.649 226.383 212.509 225.843C213.369 225.304 214.351 225.034 215.455 225.034C216.108 225.034 216.721 225.129 217.294 225.319C217.872 225.508 218.392 225.787 218.856 226.153C219.319 226.516 219.707 226.958 220.019 227.481C220.331 227.999 220.546 228.591 220.664 229.257ZM222.489 226.602V225.211H232.199V226.602H228.128V238.158H226.56V226.602H222.489ZM236.187 225.211V238.158H234.619V225.211H236.187ZM250.254 231.685C250.254 233.05 250.008 234.23 249.515 235.225C249.022 236.22 248.345 236.987 247.485 237.526C246.626 238.065 245.644 238.335 244.539 238.335C243.435 238.335 242.453 238.065 241.593 237.526C240.734 236.987 240.057 236.22 239.564 235.225C239.071 234.23 238.825 233.05 238.825 231.685C238.825 230.319 239.071 229.139 239.564 228.145C240.057 227.15 240.734 226.383 241.593 225.843C242.453 225.304 243.435 225.034 244.539 225.034C245.644 225.034 246.626 225.304 247.485 225.843C248.345 226.383 249.022 227.15 249.515 228.145C250.008 229.139 250.254 230.319 250.254 231.685ZM248.737 231.685C248.737 230.564 248.55 229.618 248.174 228.846C247.804 228.075 247.3 227.491 246.664 227.095C246.031 226.699 245.323 226.501 244.539 226.501C243.756 226.501 243.045 226.699 242.409 227.095C241.777 227.491 241.273 228.075 240.898 228.846C240.527 229.618 240.342 230.564 240.342 231.685C240.342 232.806 240.527 233.752 240.898 234.523C241.273 235.294 241.777 235.878 242.409 236.274C243.045 236.67 243.756 236.869 244.539 236.869C245.323 236.869 246.031 236.67 246.664 236.274C247.3 235.878 247.804 235.294 248.174 234.523C248.55 233.752 248.737 232.806 248.737 231.685ZM263.157 225.211V238.158H261.64L254.585 227.993H254.458V238.158H252.89V225.211H254.408L261.488 235.402H261.614V225.211H263.157Z" fill="#4C54BD"/>
<path d="M477.329 218.919C468.113 218.919 460.647 211.452 460.647 202.236C460.647 193.019 468.113 185.554 477.329 185.554C486.545 185.554 494.013 193.019 494.013 202.236C494.013 211.452 486.545 218.919 477.329 218.919ZM505.249 195.931C504.396 192.09 502.765 188.522 500.52 185.455L504.509 179.692L502.091 177.275L501.081 176.266L498.664 173.847L492.605 178.043C489.417 175.984 485.765 174.586 481.88 174.003C481.875 174.003 481.871 174.002 481.867 174.002L480.608 167.079H477.189H475.761H472.343L471.02 174.356C467.175 175.174 463.637 176.806 460.569 179.059C460.569 179.059 460.568 179.06 460.567 179.06L454.789 175.059L452.371 177.478L451.36 178.487L448.944 180.904L453.136 186.962C451.081 190.18 449.688 193.786 449.101 197.702L442.175 198.96V202.38V203.808V207.227L449.411 208.542C450.264 212.384 451.895 215.954 454.143 219.022L450.155 224.78L452.575 227.198L453.583 228.208L456.001 230.626L462.059 226.431C465.245 228.488 468.896 229.886 472.78 230.468C472.787 230.47 472.793 230.47 472.799 230.471L474.057 237.394H477.476H478.904H482.323L483.645 230.114C487.489 229.296 491.023 227.666 494.089 225.414C494.092 225.412 494.093 225.411 494.095 225.41L499.876 229.414L502.295 226.995L503.303 225.986L505.721 223.568L501.524 217.507C503.581 214.32 504.979 210.67 505.563 206.786C505.564 206.78 505.564 206.776 505.564 206.771L512.491 205.512V202.094V200.666V197.246L505.249 195.931Z" fill="#E6F0FF"/>
<path d="M788.324 288.692C781.432 288.692 775.85 283.109 775.85 276.216C775.85 269.324 781.432 263.741 788.324 263.741C795.218 263.741 800.8 269.324 800.8 276.216C800.8 283.109 795.218 288.692 788.324 288.692ZM809.203 271.501C808.566 268.629 807.347 265.961 805.666 263.666L808.65 259.358L806.842 257.55L806.087 256.794L804.279 254.986L799.747 258.125C797.364 256.585 794.632 255.54 791.727 255.104C791.724 255.102 791.72 255.102 791.718 255.102L790.776 249.925H788.22H787.152H784.595L783.606 255.366C780.731 255.978 778.086 257.198 775.791 258.884C775.791 258.885 775.79 258.885 775.79 258.885L771.467 255.893L769.66 257.701L768.906 258.456L767.096 260.264L770.234 264.793C768.696 267.201 767.652 269.897 767.215 272.825L762.035 273.766V276.324V277.39V279.948L767.446 280.932C768.084 283.805 769.303 286.474 770.986 288.769L768.004 293.074L769.811 294.884L770.567 295.638L772.375 297.446L776.906 294.309C779.288 295.848 782.018 296.893 784.922 297.329C784.927 297.33 784.931 297.33 784.936 297.33L785.878 302.508H788.434H789.502H792.059L793.048 297.064C795.922 296.452 798.564 295.232 800.858 293.549C800.859 293.548 800.86 293.548 800.862 293.546L805.186 296.54L806.994 294.732L807.748 293.977L809.556 292.168L806.418 287.636C807.958 285.253 809.002 282.524 809.438 279.618C809.438 279.614 809.438 279.61 809.439 279.608L814.619 278.666V276.109V275.041V272.484L809.203 271.501Z" fill="#E6F0FF"/>
<path d="M520.745 180.619C515.891 180.619 511.959 176.687 511.959 171.834C511.959 166.981 515.891 163.049 520.745 163.049C525.599 163.049 529.531 166.981 529.531 171.834C529.531 176.687 525.599 180.619 520.745 180.619ZM535.449 168.513C534.998 166.49 534.141 164.611 532.957 162.997L535.058 159.962L533.785 158.689L533.254 158.157L531.981 156.883L528.789 159.093C527.111 158.009 525.187 157.273 523.142 156.966C523.139 156.966 523.137 156.966 523.134 156.965L522.473 153.319H520.671H519.919H518.118L517.422 157.151C515.397 157.582 513.535 158.442 511.919 159.629C511.918 159.629 511.918 159.629 511.918 159.629L508.875 157.522L507.602 158.795L507.069 159.327L505.797 160.601L508.005 163.79C506.923 165.485 506.187 167.383 505.881 169.446L502.231 170.109V171.91V172.662V174.462L506.042 175.154C506.493 177.178 507.35 179.058 508.535 180.674L506.435 183.706L507.709 184.981L508.239 185.511L509.513 186.785L512.703 184.575C514.382 185.659 516.303 186.395 518.349 186.702C518.353 186.702 518.355 186.702 518.359 186.703L519.022 190.349H520.823H521.574H523.375L524.071 186.515C526.095 186.085 527.957 185.226 529.571 184.039C529.573 184.039 529.573 184.038 529.574 184.038L532.618 186.146L533.891 184.873L534.425 184.342L535.698 183.067L533.487 179.875C534.57 178.198 535.306 176.275 535.613 174.23C535.613 174.227 535.613 174.225 535.614 174.222L539.262 173.559V171.758V171.007V169.206L535.449 168.513Z" fill="#E6F0FF"/>
<path d="M645.853 403.375H610.801V371.204H645.853V403.375Z" fill="#B3D2FF"/>
<path d="M657.374 401.868H599.754C598.17 401.868 596.874 403.164 596.874 404.748C596.874 406.333 598.17 407.629 599.754 407.629H657.374C658.958 407.629 660.254 406.333 660.254 404.748C660.254 403.164 658.958 401.868 657.374 401.868Z" fill="#C4DCFF"/>
<path d="M770.849 391.397H486.053C483.153 391.397 480.801 389.045 480.801 386.145V207.489C480.801 204.589 483.153 202.237 486.053 202.237H770.849C773.749 202.237 776.099 204.589 776.099 207.489V386.145C776.099 389.045 773.749 391.397 770.849 391.397Z" fill="#C4DCFF"/>
<path d="M488.504 385.851C487.82 385.851 487.262 385.293 487.262 384.608V209.028C487.262 208.343 487.82 207.785 488.504 207.785H768.398C769.082 207.785 769.638 208.343 769.638 209.028V384.608C769.638 385.293 769.082 385.851 768.398 385.851H488.504Z" fill="#E6F0FF"/>
<path d="M570.584 294.08H509.489V232.984H570.584V294.08Z" fill="white"/>
<path d="M742.772 294.168H580.854V233.072H742.772V294.168Z" fill="white"/>
<path d="M742.772 309.119H580.854V300.534H742.772V309.119Z" fill="white"/>
<path d="M742.685 323.667H580.768V315.082H742.685V323.667Z" fill="white"/>
<path d="M570.584 309.029H509.489V300.443H570.584V309.029Z" fill="white"/>
<path d="M570.584 323.667H509.489V315.082H570.584V323.667Z" fill="white"/>
<path d="M775.853 360.507H480.801V339.033H775.853V360.507Z" fill="#FFCE2B"/>
<path d="M503.211 339.033L489.812 360.506H480.8V360.287L494.06 339.033H503.211Z" fill="black"/>
<path d="M523.669 339.033L510.269 360.506H501.139L514.536 339.033H523.669Z" fill="black"/>
<path d="M544.146 339.033L530.747 360.506H521.595L534.994 339.033H544.146Z" fill="black"/>
<path d="M564.622 339.033L551.224 360.506H542.072L555.472 339.033H564.622Z" fill="black"/>
<path d="M585.1 339.033L571.7 360.506H562.55L575.948 339.033H585.1Z" fill="black"/>
<path d="M605.577 339.033L592.178 360.506H583.026L596.425 339.033H605.577Z" fill="black"/>
<path d="M626.053 339.033L612.655 360.506H603.503L616.903 339.033H626.053Z" fill="black"/>
<path d="M646.51 339.033L633.112 360.506H623.981L637.378 339.033H646.51Z" fill="black"/>
<path d="M666.988 339.033L653.588 360.506H644.458L657.855 339.033H666.988Z" fill="black"/>
<path d="M687.465 339.033L674.066 360.506H664.914L678.313 339.033H687.465Z" fill="black"/>
<path d="M707.941 339.033L694.543 360.506H685.391L698.791 339.033H707.941Z" fill="black"/>
<path d="M728.419 339.033L715.019 360.506H705.869L719.267 339.033H728.419Z" fill="black"/>
<path d="M748.896 339.033L735.497 360.506H726.345L739.744 339.033H748.896Z" fill="black"/>
<path d="M769.372 339.033L755.974 360.506H746.823L760.222 339.033H769.372Z" fill="black"/>
<path d="M775.853 346.79V360.507H767.299L775.853 346.79Z" fill="black"/>
<path d="M612.141 225.408H581.943V217.967H612.141V225.408Z" fill="#E6F0FF"/>
<path d="M659.408 289.466L549.713 307.45L544.146 273.497L653.841 255.513L659.408 289.466Z" fill="#C4DCFF"/>
<path d="M546.048 273.186C544.645 273.811 597.079 252.446 597.079 252.446L653.841 255.514" stroke="#C4DCFF" stroke-width="1.33333" stroke-miterlimit="10"/>
<path d="M832.42 420.944H406.296V407.63H832.42V420.944Z" fill="#839FC7"/>
<path d="M409.721 304.35C408.264 303.922 388.373 391.532 463.98 402.948C463.98 402.948 486.217 326.868 409.721 304.35Z" fill="#C4DCFF"/>
<path d="M425.988 333.271L462.911 401.867Z" fill="white"/>
<path d="M425.988 333.271L462.911 401.867" stroke="white" stroke-width="2.66667" stroke-miterlimit="10" stroke-linecap="round"/>
<path d="M424.135 354.666L441.617 362.305Z" fill="white"/>
<path d="M424.135 354.666L441.617 362.305" stroke="white" stroke-width="2.66667" stroke-miterlimit="10" stroke-linecap="round"/>
<path d="M455.921 357.163L451.125 379.969Z" fill="white"/>
<path d="M455.921 357.163L451.125 379.969" stroke="white" stroke-width="2.66667" stroke-miterlimit="10" stroke-linecap="round"/>
<path d="M710.581 141.429H742.773V202.237H710.581V141.429Z" fill="#839FC7"/>
<path d="M747.965 185.232H691.76V129.026H747.965V185.232Z" fill="#839FC7"/>
<path d="M587.282 230.028C587.282 224.716 591.588 220.411 596.901 220.411C602.212 220.411 606.518 224.716 606.518 230.028C606.518 235.339 602.212 239.646 596.901 239.646C591.588 239.646 587.282 235.339 587.282 230.028Z" fill="#839FC7"/>
<path d="M582.805 147.102H580.768V225.408H582.805V147.102Z" fill="#839FC7"/>
<path d="M597.668 147.102H595.629V225.408H597.668V147.102Z" fill="#839FC7"/>
<path d="M613.392 147.102H611.353V225.408H613.392V147.102Z" fill="#839FC7"/>
<path d="M597.051 243.336C596.509 243.336 596.071 242.897 596.071 242.356V231.393C596.071 230.851 596.509 230.413 597.051 230.413C597.592 230.413 598.031 230.851 598.031 231.393V242.356C598.031 242.897 597.592 243.336 597.051 243.336Z" fill="#839FC7"/>
<path d="M613.392 224.61H580.768V232.984H613.392V224.61Z" fill="#839FC7"/>
<path d="M596.891 255.514C595.492 255.514 594.083 255.103 592.849 254.248C591.289 253.166 590.244 251.542 589.905 249.672C589.568 247.804 589.977 245.916 591.06 244.355C592.408 242.412 594.637 241.323 596.993 241.298C597.535 241.304 597.968 241.748 597.963 242.29C597.956 242.831 597.437 243.206 596.971 243.259C595.199 243.24 593.647 244.064 592.671 245.472C591.887 246.602 591.589 247.97 591.835 249.323C592.08 250.678 592.836 251.854 593.968 252.639C596.299 254.254 599.513 253.675 601.132 251.342C601.72 250.494 602.037 249.503 602.051 248.475C602.059 247.938 602.495 247.508 603.031 247.508H603.044C603.585 247.514 604.019 247.959 604.011 248.5C603.992 249.92 603.553 251.29 602.744 252.459C601.363 254.447 599.144 255.514 596.891 255.514Z" fill="#839FC7"/>
<path d="M742.878 157.979H572.129V129.027H742.878V157.979Z" fill="#839FC7"/>
<path d="M598.644 134.028L587.707 152.972L576.77 134.028H598.644Z" fill="white"/>
<path d="M615.372 152.973L604.435 134.029L593.498 152.973H615.372Z" fill="white"/>
<path d="M581.793 152.98H572.129V136.24L581.793 152.98Z" fill="white"/>
<path d="M633.228 134.028L622.29 152.972L611.353 134.028H633.228Z" fill="white"/>
<path d="M649.957 152.973L639.02 134.029L628.082 152.973H649.957Z" fill="white"/>
<path d="M667.812 134.028L656.875 152.972L645.938 134.028H667.812Z" fill="white"/>
<path d="M684.541 152.973L673.604 134.029L662.667 152.973H684.541Z" fill="white"/>
<path d="M702.397 134.028L691.46 152.972L680.522 134.028H702.397Z" fill="white"/>
<path d="M719.125 152.973L708.188 134.029L697.25 152.973H719.125Z" fill="white"/>
<path d="M736.982 134.028L726.044 152.972L715.107 134.028H736.982Z" fill="white"/>
<path d="M742.879 134.202V152.979H731.843L742.78 134.026L742.879 134.202Z" fill="white"/>
<path d="M566.805 157.979H572.129V129.027H566.805V157.979Z" fill="#839FC7"/>
<path d="M742.64 157.979H747.964V129.027H742.64V157.979Z" fill="#839FC7"/>
<path d="M825.62 332.454C826.657 332.149 840.825 394.552 786.973 402.684C786.973 402.684 771.134 348.493 825.62 332.454Z" fill="#C4DCFF"/>
<path d="M786.595 404.748L815.915 349.771Z" fill="white"/>
<path d="M786.595 404.748L815.915 349.771" stroke="white" stroke-width="2.66667" stroke-miterlimit="10" stroke-linecap="round"/>
<path d="M801.255 357.959L802.704 374.543Z" fill="white"/>
<path d="M801.255 357.959L802.704 374.543" stroke="white" stroke-width="2.66667" stroke-miterlimit="10" stroke-linecap="round"/>
<path d="M796.925 385.38C796.777 385.656 810.559 379.699 810.559 379.699Z" fill="white"/>
<path d="M796.925 385.38C796.777 385.656 810.559 379.699 810.559 379.699" stroke="white" stroke-width="2.66667" stroke-miterlimit="10" stroke-linecap="round"/>
<path d="M715.107 412.458H710.58V232.985H715.107V412.458Z" fill="#839FC7"/>
<path d="M742.772 412.458H738.247V232.985H742.772V412.458Z" fill="#839FC7"/>
<path d="M739.727 254.341H712.844V256.643H739.727V254.341Z" fill="#839FC7"/>
<path d="M739.727 277.438H712.844V279.739H739.727V277.438Z" fill="#839FC7"/>
<path d="M739.727 300.533H712.844V302.834H739.727V300.533Z" fill="#839FC7"/>
<path d="M739.727 323.628H712.844V325.93H739.727V323.628Z" fill="#839FC7"/>
<path d="M739.727 346.724H712.844V349.025H739.727V346.724Z" fill="#839FC7"/>
<path d="M739.727 369.82H712.844V372.12H739.727V369.82Z" fill="#839FC7"/>
</g>
<defs>
<clipPath id="clip0_308_796">
<rect width="100%" height="85vh" fill="white"/>
</clipPath>
</defs>
</svg>
